<svg width="70" height="70" viewBox="0 0 70 70" fill="none" xmlns="http://www.w3.org/2000/svg">
<path d="M0 35C-6.84897e-08 39.5963 0.905301 44.1475 2.66422 48.3939C4.42313 52.6403 7.00121 56.4987 10.2513 59.7487C13.5013 62.9988 17.3597 65.5769 21.6061 67.3358C25.8525 69.0947 30.4037 70 35 70C39.5963 70 44.1475 69.0947 48.3939 67.3358C52.6403 65.5769 56.4987 62.9988 59.7487 59.7487C62.9988 56.4987 65.5769 52.6403 67.3358 48.3939C69.0947 44.1475 70 39.5963 70 35C70 30.4037 69.0947 25.8525 67.3358 21.6061C65.5769 17.3597 62.9988 13.5013 59.7487 10.2513C56.4987 7.00121 52.6403 4.42313 48.3939 2.66422C44.1475 0.905302 39.5963 0 35 0C30.4037 0 25.8525 0.905302 21.6061 2.66422C17.3597 4.42313 13.5013 7.00121 10.2513 10.2513C7.00121 13.5013 4.42313 17.3597 2.66422 21.6061C0.905301 25.8525 -6.84897e-08 30.4037 0 35Z" fill="#FFF8E1"/>
<path d="M35 2.98958L42.5652 14.2148L55.5759 10.4786L54.1558 23.9404L66.5241 29.4414L56.7832 38.841L62.7218 51.0052L49.2179 51.9443L45.9482 65.0799L35 57.1192L24.0518 65.0799L20.7821 51.9443L7.27817 51.0052L13.2168 38.841L3.47589 29.4414L15.8442 23.9404L14.4241 10.4786L27.4348 14.2148L35 2.98958Z" fill="#FFE085"/>
<path d="M17.8646 34.9635C17.8646 39.4985 19.6661 43.8477 22.8727 47.0543C26.0794 50.261 30.4286 52.0625 34.9635 52.0625C39.4985 52.0625 43.8477 50.261 47.0543 47.0543C50.261 43.8477 52.0625 39.4985 52.0625 34.9635C52.0625 30.4286 50.261 26.0794 47.0543 22.8727C43.8477 19.6661 39.4985 17.8646 34.9635 17.8646C30.4286 17.8646 26.0794 19.6661 22.8727 22.8727C19.6661 26.0794 17.8646 30.4286 17.8646 34.9635Z" fill="#FFD450"/>
</svg>
